<svg width="36" height="29" fill="none" xmlns="http://www.w3.org/2000/svg"><path d="m19.618 24.434-1.561.119-1.562-.12s-2.725.186-5.025 2.124c0 0 1.58.735 6.587.735 5.006 0 6.587-.735 6.587-.735-2.3-1.938-5.026-2.123-5.026-2.123Z" fill="url(#a)"/><path style="mix-blend-mode:overlay" opacity=".54" d="M18.055 27.048c-4.006 0-5.818-.47-6.383-.657-.07.054-.138.11-.206.168 0 0 1.58.734 6.587.734 5.006 0 6.587-.734 6.587-.734a7.233 7.233 0 0 0-.207-.168c-.56.188-2.372.657-6.378.657Z" fill="url(#b)"/><path d="M24.634 26.561c-.108.05-1.747.732-6.584.732-5.008 0-6.586-.734-6.586-.734l-.37 1.25s2.049.846 6.889.861h.133c4.839-.015 6.89-.86 6.89-.86l-.372-1.249Z" fill="url(#c)"/><path style="mix-blend-mode:overlay" opacity=".43" d="M19.792 24.452a3.713 3.713 0 0 0-.174-.018l-1.561.119-1.562-.12s-2.725.186-5.025 2.124c3.007-1.18 7.16-1.38 7.16-1.38l1.162-.725Z" fill="url(#d)"/><path d="M20.81 19.733c-.263-.056-1.128-.147-2.236-.167h-.861c-1.108.02-1.973.111-2.235.167-.059.008-.118.016-.176.026l.963 4.985s.368.357 1.436.443h.033a5.294 5.294 0 0 0 .816 0h.034c1.068-.086 1.436-.443 1.436-.443l.965-4.985c-.058-.01-.117-.018-.176-.026Z" fill="url(#e)"/><path style="mix-blend-mode:overlay" opacity=".37" d="M19.045 25.126c.712-.132.973-.382.973-.382l.965-4.986-.176-.025c-.169-.036-.591-.087-1.167-.124l-.412.249-.183 5.268Z" fill="url(#f)"/><path style="mix-blend-mode:overlay" opacity=".43" d="M17.968 19.566h-.255c-1.108.02-1.973.111-2.235.167-.059.008-.118.016-.176.026l.963 4.988s.368.357 1.436.443h.033c.098.008.204.012.313.014l-.08-5.638Z" fill="url(#g)"/><path d="m23.282 19.34-5.137.221-5.137-.221.233 1.049s2.123.646 4.903.646c2.781 0 4.904-.646 4.904-.646l.234-1.05Z" fill="url(#h)"/><path style="mix-blend-mode:overlay" opacity=".37" d="m16.496 19.49-3.488-.15.233 1.049s1.415.431 3.45.59l-.195-1.489Z" fill="url(#i)"/><path d="m7.054 9.035-6.883 1.39v.735l3.144 5.626 1.996.898 3.643-.723-.393-1.39-2.814.406-1.33-.548-1.983-3.437.76-1.029 4.392.57-.532-2.498Z" fill="url(#j)"/><path d="M6.843 8.273 2.248 7.7.171 10.42l3.047 5.684 1.936.907 3.53-.73-.38-1.404-2.727.409-1.291-.553-1.922-3.472.738-1.04 4.256.577-.515-2.524Z" fill="url(#k)"/><path d="m4.286 14.733-1.815-3.28-.107.15 1.922 3.473 1.29.553 2.817-.423-.089-.33-2.727.41-1.29-.553ZM2.248 8.042l4.667.583-.072-.352L2.248 7.7.171 10.42l.108.202 1.969-2.579Z" fill="#fff"/><path d="m5.412 11.244 1.265.165-.514-2.526-.055.012-.085-.435-.058-.298-1.074-.135.521 3.217ZM8.482 17.011l-.28-1.285-.331-.344.211-.472-2.025.304.364 2.246 1.083-.215.978-.234Z" fill="#000"/><path d="m28.93 9.035 6.884 1.39v.735l-3.143 5.626-1.997.898-3.643-.723.393-1.39 2.814.406 1.331-.548 1.983-3.437-.761-1.029-4.392.57.532-2.498Z" fill="url(#l)"/><path d="m29.135 8.273 4.596-.574 2.077 2.72-3.048 5.684-1.935.907-3.531-.73.38-1.404 2.728.409 1.29-.553 1.922-3.472-.737-1.04-4.257.577.515-2.524Z" fill="url(#m)"/><path d="m31.696 14.733 1.815-3.28.107.15-1.922 3.473-1.29.553-2.817-.423.09-.33 2.727.41 1.29-.553ZM33.73 8.042l-4.668.583.072-.352 4.595-.574 2.077 2.72-.108.202-1.969-2.579Z" fill="#fff"/><path d="m29.415 17.433.41-2.232-1.368-.205-.078.285-.122.453-.083-.012-.392 1.388 1.633.323ZM30.484 11.254l.593-3.227-1.082.136-.05.243-.1.49-.063-.013-.539 2.532 1.241-.161Z" fill="#000"/><path d="M30.913 5.921c0-1.143-5.72-2.07-12.775-2.07-7.056 0-12.775.927-12.775 2.07 0 .047.01.092.028.135.23 1.12 1.858 8.955 2.558 10.57.732 1.691 4.759 3.177 9.964 3.258v.004h.449v-.004c5.207-.081 9.232-1.567 9.966-3.259.7-1.614 2.326-9.449 2.557-10.569a.369.369 0 0 0 .028-.135Z" fill="url(#n)"/><path style="mix-blend-mode:overlay" d="M22.64 5.012s-.806 8.282-1.305 10.25c-.499 1.968-4.118 4.66-8.331 4.076 1.435.317 3.102.515 4.912.543v.004h.449v-.004c1.75-.027 3.366-.213 4.768-.512.114-.039 2.936-1.017 3.65-4.219.73-3.268 1.892-9.118 1.892-9.118l-6.035-1.02Z" fill="url(#o)"/><path style="mix-blend-mode:overlay" opacity=".43" d="M11.933 16.048c-.452-1.219-1.555-9.159-1.894-11.65-2.855.38-4.676.956-4.676 1.601 0 .046.01.092.028.135.23 1.12 1.858 8.955 2.558 10.572.705 1.628 4.46 3.064 9.382 3.242-3.917-.672-4.86-2.453-5.398-3.9Z" fill="url(#p)"/><path opacity=".19" d="M5.363 5.921c0 .047.01.092.028.135.074.359.293 1.403.574 2.712 6.846-3.664 22.71-2.734 22.71-2.734l.993-1.006c-2.057-.696-6.446-1.176-11.528-1.176-7.057 0-12.777.926-12.777 2.07Z" fill="#000018"/><path style="mix-blend-mode:overlay" opacity=".2" d="M18.583 16.518C18.32 15.205 17.501 5.01 17.501 5.01l-.093-1.16c-3.453.036-6.535.296-8.705.686v.065h.005c.2-.035.408-.07.623-.103l.057-.009.25-.037.088-.013.3-.041h.017c.342 2.49 1.443 10.43 1.895 11.65.048.133.103.271.162.41l.009.02.049.114.02.045.042.092.029.058.038.077.036.07.036.067c.011.022.028.051.043.077l.033.059.049.084.031.05.058.09.03.044.065.099.027.037.076.102.023.03c.028.036.056.072.086.108l.018.021.098.114.011.013c.627.696 1.582 1.333 3.14 1.757h.004l.296.076h.006c.1.024.204.048.31.07.401.025.81.041 1.228.05v.004h.449v-.004c.484-.008.955-.027 1.415-.058-.393-.846-1.088-2.389-1.272-3.307Z" fill="url(#q)"/><path d="M18.141.715c-7.885 0-14.278 1.31-14.278 2.926 0 .064.011.128.031.19.068.417.244 1.491.48 2.89 1.664-1.238 7.197-2.148 13.767-2.148 6.57 0 12.104.91 13.767 2.147.236-1.398.413-2.472.48-2.889a.64.64 0 0 0 .031-.19c0-1.618-6.392-2.926-14.278-2.926Z" fill="url(#r)"/><path style="mix-blend-mode:overlay" d="m23.97.969-.434 3.758 1.04.159c1.318.129 2.628.329 3.924.599l.866.132.775-3.563c-1.493-.474-3.636-.853-6.17-1.085Z" fill="url(#s)"/><path opacity=".14" d="M13.023.91c-5.357.422-9.16 1.486-9.16 2.732 0 .065.011.13.031.19.068.418.244 1.492.48 2.89 1.241-.923 4.636-1.664 9.009-1.98L13.023.91Z" fill="#000"/><path style="mix-blend-mode:overlay" d="M18.141.715c-7.885 0-14.278 1.31-14.278 2.926 0 .064.011.128.031.19l.012.072c.567-1.509 6.724-2.697 14.235-2.697 7.512 0 13.669 1.188 14.236 2.697l.011-.072a.64.64 0 0 0 .031-.19c0-1.618-6.392-2.926-14.278-2.926Z" fill="url(#t)"/><path opacity=".35" d="M18.04 4.07C6.72 4.07 4.685 5.833 4.415 6.475a.347.347 0 0 0-.02.235c1.687-1.229 7.202-2.133 13.747-2.133 6.546 0 12.058.902 13.745 2.132a.347.347 0 0 0-.02-.234c-.27-.642-2.506-2.405-13.825-2.405Z" fill="url(#u)"/><path d="M31.863 6.568c-.27-.57-2.506-2.134-13.825-2.134C6.718 4.434 4.68 6 4.41 6.57c-.27.57 1.246.76 1.246.76l-.159-.762c3.833-1.25 10.36-1.371 12.64-1.374 2.28-.002 8.808.125 12.64 1.374l-.159.76s1.514-.19 1.244-.76Z" fill="url(#v)"/><path opacity=".14" d="M17.422 17.3c2.656-.05 4.77-2.26 4.72-4.937-.049-2.677-2.242-4.807-4.898-4.757-2.656.05-4.77 2.26-4.72 4.937.049 2.677 2.242 4.807 4.898 4.757Z" fill="#000"/><path d="M17.954 16.84c2.657 0 4.81-2.17 4.81-4.847 0-2.678-2.153-4.848-4.81-4.848-2.657 0-4.81 2.17-4.81 4.848 0 2.677 2.153 4.848 4.81 4.848Z" fill="url(#w)"/><path d="M21.108 14.825a4.523 4.523 0 0 0 0-6.361 4.438 4.438 0 0 0-6.312 0 4.523 4.523 0 0 0 0 6.361 4.439 4.439 0 0 0 6.312 0Z" fill="url(#x)"/><path style="mix-blend-mode:overlay" d="M17.951 7.145c-.658 0-1.308.146-1.903.428a4.467 4.467 0 0 0-1.54 1.206 4.51 4.51 0 0 0-.938 3.717 4.33 4.33 0 0 1 .352-2.42 4.289 4.289 0 0 1 1.605-1.836 4.24 4.24 0 0 1 4.654.082 4.291 4.291 0 0 1 1.54 1.89 4.33 4.33 0 0 1-.824 4.618 4.26 4.26 0 0 1-2.098 1.23 4.459 4.459 0 0 0 2.727-1.722 4.523 4.523 0 0 0-.573-6.022 4.443 4.443 0 0 0-3.002-1.169v-.002Z" fill="url(#y)"/><path d="M17.948 7.145v5.486l4.389-.173a4.53 4.53 0 0 0-.959-3.693 4.464 4.464 0 0 0-1.536-1.194 4.431 4.431 0 0 0-1.894-.424v-.002Z" fill="url(#z)"/><path style="mix-blend-mode:overlay" d="m20.182 11.707-1.06-2.656h-3.131l-.425 1.58h1.747l.238.595-2.074 2.344v1.612h4.038v-1.378h-1.414l2.081-2.097Z" fill="url(#A)"/><path d="M15.75 10.344h1.656l.308.767-2.098 2.37v1.414h3.754v-1.09h-1.616l2.258-2.276-.99-2.478h-2.925l-.348 1.293Z" fill="url(#B)"/><path d="m17.714 11.113-2.098 2.37v.353l2.098-2.37v-.353ZM16.098 9.404h2.926l.889 2.226.1-.101-.989-2.478h-2.926l-.347 1.293h.095l.252-.94ZM19.375 13.8H17.76v.354h1.616v-.353Z" fill="#000"/><path style="mix-blend-mode:screen" d="M23.19 8.876c-.232-.233 1.12-1.998 3.02-3.94 1.899-1.943 3.627-3.33 3.859-3.098.231.23-1.12 1.996-3.02 3.94s-3.626 3.332-3.86 3.098Z" fill="url(#C)"/><defs><linearGradient id="a" x1="24.441" y1="25.863" x2="14.067" y2="25.863" gradientUnits="userSpaceOnUse"><stop offset=".04" stop-color="#BCC8DC"/><stop offset=".96" stop-color="#444C54"/><stop offset="1" stop-color="#404850"/></linearGradient><linearGradient id="b" x1="23.554" y1="26.841" x2="13.162" y2="26.841" gradientUnits="userSpaceOnUse"><stop stop-color="#FEFEFF"/><stop offset="1" stop-color="#fff"/></linearGradient><linearGradient id="c" x1="22.806" y1="27.613" x2="10.763" y2="27.613" gradientUnits="userSpaceOnUse"><stop stop-color="#98A2B2"/><stop offset=".17" stop-color="#D8E4E4"/><stop offset="1" stop-color="#282A32"/></linearGradient><linearGradient id="d" x1="16.423" y1="25.068" x2="10.684" y2="26.82" gradientUnits="userSpaceOnUse"><stop/><stop offset="1"/></linearGradient><linearGradient id="e" x1="21.061" y1="22.384" x2="14.959" y2="22.384" gradientUnits="userSpaceOnUse"><stop offset=".09" stop-color="#9CAAB2"/><stop offset=".23" stop-color="#89969E"/><stop offset=".57" stop-color="#616C74"/><stop offset=".84" stop-color="#49525A"/><stop offset="1" stop-color="#404850"/></linearGradient><linearGradient id="f" x1="20.014" y1="18.609" x2="20.014" y2="24.016" gradientUnits="userSpaceOnUse"><stop stop-color="#FEFEBE"/><stop offset="1" stop-color="#fff"/></linearGradient><linearGradient id="g" x1="16.673" y1="20.031" x2="16.673" y2="23.875" gradientUnits="userSpaceOnUse"><stop/><stop offset="1"/></linearGradient><linearGradient id="h" x1="26.866" y1="20.866" x2="9.022" y2="19.069" gradientUnits="userSpaceOnUse"><stop offset=".09" stop-color="#808C90"/><stop offset=".47" stop-color="#626E7A"/><stop offset="1" stop-color="#322A32"/></linearGradient><linearGradient id="i" x1="14.849" y1="19.029" x2="14.849" y2="24.11" gradientUnits="userSpaceOnUse"><stop/><stop offset="1"/></linearGradient><linearGradient id="j" x1="5.626" y1="8.145" x2="3.532" y2="18.901" gradientUnits="userSpaceOnUse"><stop stop-color="#626E7A"/><stop offset="1" stop-color="#282A32"/></linearGradient><linearGradient id="k" x1="8.736" y1="12.86" x2="-7.888" y2="11.216" gradientUnits="userSpaceOnUse"><stop offset=".09" stop-color="#9CAAB2"/><stop offset="1" stop-color="#404850"/></linearGradient><linearGradient id="l" x1="31.423" y1=".92" x2="31.423" y2="28.721" gradientUnits="userSpaceOnUse"><stop stop-color="#6C829C"/><stop offset="1" stop-color="#282A32"/></linearGradient><linearGradient id="m" x1="21.69" y1="11.287" x2="38.928" y2="12.998" gradientUnits="userSpaceOnUse"><stop stop-color="#ECFEF4"/><stop offset=".29" stop-color="#CED8D4"/><stop offset=".83" stop-color="#8A9498"/><stop offset="1" stop-color="#50565C"/></linearGradient><linearGradient id="o" x1="20.839" y1="5.043" x2="20.839" y2="15.385" gradientUnits="userSpaceOnUse"><stop stop-color="#F2ECFF"/><stop offset="1" stop-color="#fff"/></linearGradient><linearGradient id="p" x1="9.422" y1="8.796" x2="12.43" y2="17.588" gradientUnits="userSpaceOnUse"><stop/><stop offset="1"/></linearGradient><linearGradient id="q" x1="13.325" y1="5.756" x2="15.224" y2="16.334" gradientUnits="userSpaceOnUse"><stop/><stop offset="1"/></linearGradient><linearGradient id="s" x1="26.839" y1=".813" x2="26.839" y2="5.024" gradientUnits="userSpaceOnUse"><stop stop-color="#FEFEBE"/><stop offset="1" stop-color="#fff"/></linearGradient><linearGradient id="t" x1="3.863" y1="2.309" x2="32.419" y2="2.309" gradientUnits="userSpaceOnUse"><stop stop-color="#FEFEFF"/><stop offset=".12" stop-color="#FEFEFF"/><stop offset=".54" stop-color="#FEFEFF"/><stop offset="1" stop-color="#FEFEFF"/></linearGradient><linearGradient id="u" x1="26.402" y1="5.39" x2="13.619" y2="5.39" gradientUnits="userSpaceOnUse"><stop stop-color="#6A7882"/><stop offset=".22" stop-color="#65737D"/><stop offset=".49" stop-color="#58636D"/><stop offset=".8" stop-color="#424953"/><stop offset="1" stop-color="#30343E"/></linearGradient><linearGradient id="v" x1="26.4" y1="5.879" x2="13.616" y2="5.879" gradientUnits="userSpaceOnUse"><stop stop-color="#828C9A"/><stop offset=".4" stop-color="#636B78"/><stop offset="1" stop-color="#30343E"/></linearGradient><linearGradient id="w" x1="20.293" y1="8.957" x2="16.003" y2="14.439" gradientUnits="userSpaceOnUse"><stop stop-color="#8A9498"/><stop offset="1" stop-color="#50565C"/></linearGradient><linearGradient id="x" x1="20.188" y1="7.776" x2="14.457" y2="17.54" gradientUnits="userSpaceOnUse"><stop stop-color="#E6EAEC"/><stop offset=".71" stop-color="#8A9498"/><stop offset="1" stop-color="#50565C"/></linearGradient><linearGradient id="y" x1="20.188" y1="7.771" x2="15.166" y2="16.328" gradientUnits="userSpaceOnUse"><stop stop-color="#FEFEFF"/><stop offset=".12" stop-color="#FEFEFF"/><stop offset=".54" stop-color="#FEFEFF"/><stop offset="1" stop-color="#FEFEFF"/></linearGradient><linearGradient id="z" x1="21.433" y1="8.064" x2="18.66" y2="11.739" gradientUnits="userSpaceOnUse"><stop stop-color="#F2ECFF"/><stop offset=".48" stop-color="#FAF8FF"/><stop offset="1" stop-color="#fff"/></linearGradient><linearGradient id="A" x1="17.869" y1="13.881" x2="17.394" y2="8.724" gradientUnits="userSpaceOnUse"><stop stop-color="#FEFEFF"/><stop offset=".12" stop-color="#FEFEFF"/><stop offset=".54" stop-color="#FEFEFF"/><stop offset="1" stop-color="#FEFEFF"/></linearGradient><linearGradient id="B" x1="17.814" y1="16.551" x2="17.814" y2="10.298" gradientUnits="userSpaceOnUse"><stop stop-color="#6A7882"/><stop offset=".37" stop-color="#505963"/><stop offset=".77" stop-color="#393E48"/><stop offset="1" stop-color="#30343E"/></linearGradient><radialGradient id="n" cx="0" cy="0" r="1" gradientUnits="userSpaceOnUse" gradientTransform="matrix(17.0527 0 0 17.1863 21.951 7.417)"><stop stop-color="#FAFEF4"/><stop offset=".29" stop-color="#CED8D4"/><stop offset=".71" stop-color="#8A9498"/><stop offset="1" stop-color="#50565C"/></radialGradient><radialGradient id="r" cx="0" cy="0" r="1" gradientUnits="userSpaceOnUse" gradientTransform="matrix(25.7323 0 0 25.9338 25.307 3.114)"><stop stop-color="#ECFEF4"/><stop offset=".29" stop-color="#CED8D4"/><stop offset=".55" stop-color="#8A9498"/><stop offset="1" stop-color="#50565C"/></radialGradient><radialGradient id="C" cx="0" cy="0" r="1" gradientUnits="userSpaceOnUse" gradientTransform="matrix(-3.43174 3.52228 -.42813 -.41713 26.933 5.43)"><stop stop-color="#F5F606"/><stop offset=".03" stop-color="#C5C823"/><stop offset=".06" stop-color="#9DA23B"/><stop offset=".09" stop-color="#7E844E"/><stop offset=".11" stop-color="#686F5B"/><stop offset=".14" stop-color="#5B6263"/><stop offset=".16" stop-color="#565E66"/><stop offset=".24" stop-color="#40464C"/><stop offset=".35" stop-color="#292D31"/><stop offset=".48" stop-color="#17191B"/><stop offset=".61" stop-color="#0A0B0C"/><stop offset=".77" stop-color="#020303"/><stop offset="1"/></radialGradient></defs></svg>