<svg width="55" height="40" fill="none" xmlns="http://www.w3.org/2000/svg"><path d="m29.543 32.988-2.258.167-2.26-.167s-3.938.256-7.264 2.925c0 0 2.284 1.011 9.525 1.011 7.24 0 9.523-1.008 9.523-1.008-3.326-2.67-7.266-2.928-7.266-2.928Z" fill="url(#a)"/><path style="mix-blend-mode:overlay" opacity=".54" d="M27.282 36.593c-5.792 0-8.41-.646-9.227-.906-.1.076-.2.152-.298.232 0 0 2.284 1.011 9.525 1.011 7.24 0 9.525-1.008 9.525-1.008a12.16 12.16 0 0 0-.298-.232c-.817.257-3.436.903-9.227.903Z" fill="url(#b)"/><path d="M36.8 35.922c-.155.065-2.525 1.007-9.516 1.007-7.24 0-9.525-1.011-9.525-1.011l-.535 1.724s2.964 1.164 9.958 1.186h.194c6.995-.022 9.96-1.186 9.96-1.186l-.536-1.72Z" fill="url(#c)"/><path opacity=".36" d="M17.76 35.916s4.814-1.902 10.246-1.887c0 0 1.46-.37 1.125-1.008l-1.847.134-2.259-.167s-3.938.256-7.264 2.924v.004Z" fill="#401E00"/><path d="M31.265 26.515c-.38-.077-1.63-.202-3.231-.23H26.786c-1.602.028-2.852.153-3.231.23-.085.011-.17.022-.255.035l1.396 6.867s.532.49 2.075.612l.044.004h.005a8.093 8.093 0 0 0 1.18 0h.005l.043-.004c1.544-.119 2.075-.612 2.075-.612l1.397-6.867c-.085-.013-.17-.024-.255-.035Z" fill="url(#d)"/><path style="mix-blend-mode:overlay" opacity=".58" d="M28.717 33.946c1.03-.182 1.406-.526 1.406-.526l1.396-6.867c-.084-.013-.17-.024-.254-.035-.245-.05-.855-.12-1.688-.17l-.596.342-.264 7.256Z" fill="url(#e)"/><path style="mix-blend-mode:overlay" opacity=".35" d="m26.243 26.519-.592-.199c-1.043.05-1.813.136-2.096.193-.085.01-.17.022-.255.035l1.396 6.867s.532.491 2.075.612l.044.004h.005c.016 0 .034 0 .051.003l-.628-7.515Z" fill="url(#f)"/><path d="m34.837 25.973-7.426.305-7.426-.305.337 1.446s3.07.89 7.089.89c4.02 0 7.088-.89 7.088-.89l.338-1.446Z" fill="url(#g)"/><path style="mix-blend-mode:overlay" opacity=".2" d="m25.028 26.18-5.043-.207.337 1.446s2.047.594 4.988.812l-.282-2.05Z" fill="url(#h)"/><path d="m10.098 11.773-9.95 1.914V14.7l4.544 7.75 2.887 1.235 5.265-.996-.568-1.913-4.067.558-1.925-.755-2.865-4.733 1.1-1.417 6.348.785-.769-3.44Z" fill="url(#i)"/><path d="m9.793 10.732-6.643-.79-3.003 3.746 4.406 7.828 2.797 1.25 5.105-1.006-.55-1.934-3.944.563-1.865-.761-2.778-4.783 1.066-1.431 6.154.793-.745-3.475Z" fill="url(#j)"/><path d="m6.1 19.634-2.623-4.517-.154.207L6.1 20.107l1.866.761 4.072-.582-.129-.454-3.943.564-1.866-.762ZM3.15 10.414l6.747.802-.104-.484-6.643-.79-3.003 3.746.157.277 2.846-3.551Z" fill="#FF0"/><path d="m9.03 14.988 1.835.227-.768-3.44-.079.014-.122-.573-.105-.484-1.55-.185.789 4.44ZM12.276 20.78l-.098.012-.145-.51-.13-.454-1.963.28.54 3.032 2.363-.447-.567-1.914Z" fill="#401E00"/><path d="m44.525 11.773 9.95 1.914V14.7l-4.544 7.75-2.886 1.235-5.266-.996.568-1.913 4.068.558 1.924-.755 2.866-4.733-1.1-1.417-6.348.785.768-3.44Z" fill="url(#k)"/><path d="m44.827 10.732 6.643-.79 3.002 3.746-4.405 7.828-2.797 1.25-5.105-1.006.55-1.934 3.943.563 1.866-.761 2.778-4.783-1.066-1.431-6.154.793.745-3.475Z" fill="url(#l)"/><path d="m48.53 19.634 2.624-4.517.154.207-2.778 4.783-1.866.761-4.071-.582.129-.454 3.942.564 1.866-.762ZM51.474 10.414l-6.746.802.103-.484 6.643-.79 3.003 3.746-.156.277-2.847-3.551Z" fill="#fff"/><path d="m44.328 20.058-1.609-.23-.129.453-.145.512-.098-.014-.568 1.914 1.97.373.58-3.008ZM44.726 11.22l-.123.573-.078-.015-.77 3.44 1.541-.19.858-4.45-1.324.158-.104.484Z" fill="#401E00"/><path d="M45.881 7.495c0-1.574-8.267-2.85-18.466-2.85-10.2 0-18.467 1.279-18.467 2.85a.48.48 0 0 0 .04.186c.334 1.544 2.686 12.334 3.698 14.559 1.06 2.33 6.879 4.376 14.404 4.487v.006h.649v-.006c7.526-.11 13.345-2.158 14.405-4.487 1.012-2.225 3.364-13.015 3.697-14.558a.48.48 0 0 0 .04-.185v-.002Z" fill="url(#m)"/><path style="mix-blend-mode:overlay" d="M33.914 6.242S32.75 17.648 32.03 20.36c-.722 2.71-5.953 6.418-12.044 5.613 2.076.438 4.485.71 7.101.75v.005h.649v-.005c2.53-.038 4.865-.295 6.892-.707.166-.055 4.245-1.4 5.277-5.81 1.055-4.5 2.735-12.558 2.735-12.558l-8.725-1.405Z" fill="url(#n)"/><path style="mix-blend-mode:overlay" opacity=".31" d="M18.445 21.443c-.653-1.679-2.248-12.615-2.738-16.045-4.126.523-6.759 1.317-6.759 2.205.001.064.015.127.04.186.334 1.543 2.686 12.334 3.698 14.557 1.02 2.242 6.448 4.22 13.562 4.466-5.663-.922-7.027-3.375-7.803-5.37Z" fill="url(#o)"/><path style="mix-blend-mode:overlay" opacity=".14" d="M28.055 22.099C27.674 20.29 26.49 6.248 26.49 6.248l-.136-1.596c-4.993.049-9.447.403-12.584.946v.09c.601-.103 1.247-.197 1.938-.285.49 3.43 2.085 14.366 2.738 16.045.737 1.89 2.007 4.2 6.982 5.217.58.033 1.172.055 1.776.065v.005h.649v-.005c.699-.011 1.381-.038 2.049-.08-.578-1.162-1.582-3.286-1.848-4.551Z" fill="url(#p)"/><path opacity=".19" d="M8.948 7.495a.48.48 0 0 0 .04.186c.107.494.42 1.933.83 3.735C19.714 6.369 42.643 7.65 42.643 7.65l1.437-1.385c-2.975-.96-9.319-1.621-16.665-1.621-10.199 0-18.467 1.276-18.467 2.85Z" fill="#463000"/><path opacity=".19" d="m33.042 12.702-6.718-3.694-6.717 3.694-.18.795.41 7.194 6.487 3.597 6.488-3.597.409-7.194-.18-.795Z" fill="#463000"/><path d="m33.97 19.93.298-6.76-.333-.98-6.717-2.999L20.5 12.19l-.246 1.095.246 6.767 6.718 3.724 6.751-3.846Z" fill="url(#q)"/><path d="m33.538 19.201.399-7.007L27.22 8.5l-6.718 3.694.398 7.007 6.32 3.504 6.319-3.504Z" fill="url(#r)"/><path style="mix-blend-mode:overlay" d="m27.22 8.5-6.718 3.694.028.488 6.318-3.476 6.526 3.59-.382 6.708.547-.303.398-7.007L27.22 8.5Z" fill="url(#s)"/><path style="mix-blend-mode:overlay" d="m27.213 8.5-1.315 7.487 2.371 1.075 5.662-4.868L27.213 8.5Z" fill="url(#t)"/><path style="mix-blend-mode:overlay" d="M24.593 14.039h1.773l-.3 6.727h2.67l-.485-8.172h-2.968l-.69 1.445Z" fill="url(#u)"/><path d="M24.593 13.675h1.773l-.3 6.727h2.67l-.485-8.172h-2.968l-.69 1.445Z" fill="url(#v)"/><path opacity=".51" d="M25.283 12.779h2.968l.452 7.623h.033l-.485-8.172h-2.968l-.69 1.445h.262l.428-.896Z" fill="#000"/><path d="M27.412.324c-11.398 0-20.64 1.804-20.64 4.03.001.088.016.177.046.261.098.575.352 2.054.695 3.98 2.404-1.705 10.402-2.958 19.9-2.958 9.497 0 17.496 1.253 19.9 2.958.342-1.926.596-3.405.695-3.98a.839.839 0 0 0 .044-.262c0-2.224-9.24-4.029-20.64-4.029Z" fill="url(#w)"/><path style="mix-blend-mode:overlay" d="m35.839.672-.628 5.177 1.506.22c2.128.21 4.046.49 5.671.824l1.252.182 1.12-4.908C42.6 1.515 39.502.992 35.84.672Z" fill="url(#x)"/><path opacity=".14" d="M20.014.59C12.27 1.17 6.772 2.636 6.772 4.352c.001.09.016.178.046.262.098.575.352 2.054.695 3.98 1.795-1.272 6.701-2.292 13.021-2.725l-.52-5.28Z" fill="#563A00"/><path style="mix-blend-mode:overlay" d="M27.412.324c-11.398 0-20.64 1.804-20.64 4.03.001.088.016.177.046.261l.016.1c.82-2.079 9.72-3.716 20.578-3.716C38.27.999 47.17 2.638 47.99 4.718l.017-.1a.827.827 0 0 0 .045-.262c0-2.227-9.24-4.032-20.64-4.032Z" fill="url(#y)"/><path opacity=".2" d="M27.26 4.863c-16.005 0-19.274 2.406-19.813 3.398l.058.334c2.404-1.705 10.403-2.958 19.9-2.958 9.498 0 17.496 1.253 19.9 2.958.02-.111.04-.222.058-.334-.545-.984-4.076-3.398-20.103-3.398Z" fill="#563000"/><path d="M47.258 8.387c-.39-.784-3.623-2.942-19.986-2.942-16.362 0-19.307 2.158-19.697 2.942-.39.785 1.8 1.047 1.8 1.047l-.232-1.047c5.54-1.72 14.977-1.888 18.272-1.89 3.295-.003 12.732.17 18.272 1.89l-.231 1.047s2.192-.263 1.802-1.047Z" fill="url(#z)"/><path d="m5.349 10.671 3.595.428-.122-.486-3.15-.375-.323.434ZM49.217 10.66l-3.595.428.122-.487 3.15-.374.323.433Z" fill="#fff" style="mix-blend-mode:overlay"/><defs><linearGradient id="a" x1="34.145" y1="35.584" x2="16.03" y2="33.852" gradientUnits="userSpaceOnUse"><stop stop-color="#FFFF46"/><stop offset=".1" stop-color="#EFE53B"/><stop offset=".32" stop-color="#D1B326"/><stop offset=".53" stop-color="#B98C16"/><stop offset=".71" stop-color="#A86F0A"/><stop offset=".88" stop-color="#9E5E03"/><stop offset="1" stop-color="#9A5800"/></linearGradient><linearGradient id="b" x1="35.231" y1="36.309" x2="20.208" y2="36.309" gradientUnits="userSpaceOnUse"><stop stop-color="#FEFEFF"/><stop offset="1" stop-color="#fff"/></linearGradient><linearGradient id="c" x1="35.737" y1="37.374" x2="11.835" y2="37.374" gradientUnits="userSpaceOnUse"><stop stop-color="#DAAA00"/><stop offset="1" stop-color="#5E3000"/></linearGradient><linearGradient id="d" x1="33.12" y1="30.166" x2="20.036" y2="30.166" gradientUnits="userSpaceOnUse"><stop stop-color="#F6B83A"/><stop offset=".03" stop-color="#F1B438"/><stop offset=".35" stop-color="#BC8020"/><stop offset=".63" stop-color="#955B0F"/><stop offset=".85" stop-color="#7D4404"/><stop offset=".99" stop-color="#743C00"/></linearGradient><linearGradient id="e" x1="30.118" y1="24.971" x2="30.118" y2="32.417" gradientUnits="userSpaceOnUse"><stop stop-color="#FEFEBE"/><stop offset="1" stop-color="#fff"/></linearGradient><linearGradient id="f" x1="25.085" y1="24.856" x2="25.085" y2="48.774" gradientUnits="userSpaceOnUse"><stop/><stop offset="1"/></linearGradient><linearGradient id="g" x1="40.017" y1="28.074" x2="14.251" y2="25.351" gradientUnits="userSpaceOnUse"><stop offset=".09" stop-color="#F6E23A"/><stop offset=".6" stop-color="#B46E00"/><stop offset="1" stop-color="#4C2A00"/></linearGradient><linearGradient id="h" x1="22.648" y1="25.544" x2="22.648" y2="32.543" gradientUnits="userSpaceOnUse"><stop/><stop offset="1"/></linearGradient><linearGradient id="i" x1="8.034" y1="10.548" x2="5.276" y2="25.411" gradientUnits="userSpaceOnUse"><stop stop-color="#885C00"/><stop offset=".36" stop-color="#855A00"/><stop offset=".64" stop-color="#7B5200"/><stop offset=".88" stop-color="#6B4500"/><stop offset="1" stop-color="#603C00"/></linearGradient><linearGradient id="j" x1="4.961" y1="4.94" x2="7.478" y2="30.972" gradientUnits="userSpaceOnUse"><stop offset=".01" stop-color="#F6E220"/><stop offset=".12" stop-color="#FFFF5C"/><stop offset=".6" stop-color="#B46E00"/><stop offset="1" stop-color="#4C2A00"/></linearGradient><linearGradient id="k" x1="48.127" y1=".597" x2="48.127" y2="38.886" gradientUnits="userSpaceOnUse"><stop offset=".6" stop-color="#B46E00"/><stop offset="1" stop-color="#4C2A00"/></linearGradient><linearGradient id="l" x1="48.319" y1="8.182" x2="48.319" y2="40.588" gradientUnits="userSpaceOnUse"><stop offset=".09" stop-color="#FFFF4C"/><stop offset=".6" stop-color="#B46E00"/><stop offset="1" stop-color="#4C2A00"/></linearGradient><linearGradient id="n" x1="31.312" y1="6.284" x2="31.312" y2="20.529" gradientUnits="userSpaceOnUse"><stop stop-color="#FEFEBE"/><stop offset="1" stop-color="#fff"/></linearGradient><linearGradient id="o" x1="17.598" y1="11.949" x2="17.598" y2="24.375" gradientUnits="userSpaceOnUse"><stop/><stop offset="1"/></linearGradient><linearGradient id="p" x1="21.838" y1="6.408" x2="21.838" y2="24.646" gradientUnits="userSpaceOnUse"><stop/><stop offset="1"/></linearGradient><linearGradient id="q" x1="34.243" y1="15.355" x2="25.018" y2="16.962" gradientUnits="userSpaceOnUse"><stop stop-color="#BA8A00"/><stop offset=".35" stop-color="#B88700"/><stop offset=".61" stop-color="#B27D00"/><stop offset=".85" stop-color="#A86D00"/><stop offset="1" stop-color="#9E5E00"/></linearGradient><linearGradient id="r" x1="32.795" y1="7.985" x2="13.951" y2="35.281" gradientUnits="userSpaceOnUse"><stop stop-color="#FEFEBE"/><stop offset=".39" stop-color="#F6DA3A"/><stop offset=".75" stop-color="#D27C00"/><stop offset="1" stop-color="#9A6E1A"/></linearGradient><linearGradient id="s" x1="20.502" y1="14.002" x2="33.937" y2="14.002" gradientUnits="userSpaceOnUse"><stop stop-color="#FEFEBE"/><stop offset="1" stop-color="#fff"/></linearGradient><linearGradient id="t" x1="30.958" y1="9.314" x2="29.161" y2="14.522" gradientUnits="userSpaceOnUse"><stop stop-color="#FEFEBE"/><stop offset="1" stop-color="#fff"/></linearGradient><linearGradient id="u" x1="26.665" y1="20.291" x2="26.665" y2="13.444" gradientUnits="userSpaceOnUse"><stop stop-color="#FEFEBE"/><stop offset="1" stop-color="#fff"/></linearGradient><linearGradient id="v" x1="26.665" y1="19.927" x2="26.665" y2="13.081" gradientUnits="userSpaceOnUse"><stop stop-color="#885C00"/><stop offset=".36" stop-color="#855A00"/><stop offset=".64" stop-color="#7B5200"/><stop offset=".88" stop-color="#6B4500"/><stop offset="1" stop-color="#603C00"/></linearGradient><linearGradient id="x" x1="39.985" y1=".458" x2="39.985" y2="6.258" gradientUnits="userSpaceOnUse"><stop stop-color="#FEFEBE"/><stop offset="1" stop-color="#fff"/></linearGradient><linearGradient id="y" x1="6.772" y1="2.521" x2="48.052" y2="2.521" gradientUnits="userSpaceOnUse"><stop stop-color="#FEFEFF"/><stop offset=".12" stop-color="#FEFEFF"/><stop offset=".54" stop-color="#FEFEFF"/><stop offset="1" stop-color="#FEFEFF"/></linearGradient><linearGradient id="z" x1="39.361" y1="7.44" x2="20.881" y2="7.44" gradientUnits="userSpaceOnUse"><stop stop-color="#D8A200"/><stop offset=".17" stop-color="#D39D00"/><stop offset=".4" stop-color="#C39000"/><stop offset=".64" stop-color="#A97A00"/><stop offset=".9" stop-color="#865B00"/><stop offset="1" stop-color="#764E00"/></linearGradient><radialGradient id="m" cx="0" cy="0" r="1" gradientUnits="userSpaceOnUse" gradientTransform="matrix(24.6501 0 0 23.6702 32.927 9.555)"><stop stop-color="#FEFEBE"/><stop offset=".29" stop-color="#F6DA3A"/><stop offset=".71" stop-color="#D29400"/><stop offset="1" stop-color="#94681A"/></radialGradient><radialGradient id="w" cx="0" cy="0" r="1" gradientUnits="userSpaceOnUse" gradientTransform="matrix(37.1966 0 0 35.718 37.771 3.629)"><stop stop-color="#FEFEBE"/><stop offset=".39" stop-color="#F6DA3A"/><stop offset=".75" stop-color="#D27C00"/><stop offset="1" stop-color="#9A6E1A"/></radialGradient></defs></svg>