<svg width="42" height="29" viewBox="0 0 42 29" fill="none" xmlns="http://www.w3.org/2000/svg">
<path d="M22.6626 23.9414L20.8736 24.0616L19.084 23.9414C19.084 23.9414 15.965 24.1283 13.332 26.0822C13.332 26.0822 15.1409 26.8223 20.8736 26.8223C26.6063 26.8223 28.4152 26.0822 28.4152 26.0822C25.7822 24.1283 22.6626 23.9414 22.6626 23.9414Z" fill="url(#paint0_linear_21_83529)"/>
<g style="mix-blend-mode:overlay" opacity="0.43">
<path d="M20.8736 26.5728C16.2886 26.5728 14.2151 26.0997 13.5678 25.9102C13.489 25.9636 13.4102 26.0212 13.332 26.0794C13.332 26.0794 15.1409 26.8195 20.8736 26.8195C26.6063 26.8195 28.4152 26.0794 28.4152 26.0794C28.337 26.0212 28.2582 25.9652 28.1788 25.9102C27.5315 26.0997 25.4586 26.5728 20.8736 26.5728Z" fill="white"/>
</g>
<path d="M28.4033 26.0847C28.283 26.1322 26.4037 26.8221 20.8689 26.8221C15.1368 26.8221 13.3279 26.082 13.3273 26.082L12.9062 27.3433C12.9062 27.3433 15.2523 28.1977 20.7913 28.211H20.9435C26.4813 28.195 28.8279 27.3433 28.8279 27.3433L28.4033 26.0847Z" fill="url(#paint1_radial_21_83529)"/>
<path style="mix-blend-mode:overlay" opacity="0.43" d="M22.8623 23.9596C22.7342 23.9457 22.6626 23.9414 22.6626 23.9414L20.8736 24.0616L19.084 23.9414C19.084 23.9414 15.965 24.1283 13.332 26.0822C16.7747 24.8935 21.5263 24.6901 21.5263 24.6901L22.8623 23.9596Z" fill="url(#paint2_linear_21_83529)"/>
<path d="M24.0248 19.2034C23.724 19.15 22.735 19.0554 21.467 19.0352H21.3942H21.2234H20.7217H20.5514H20.4786C19.2106 19.0554 18.221 19.1473 17.9209 19.2034C17.8535 19.2114 17.7855 19.2199 17.7188 19.229L18.8244 24.2549C18.8244 24.2549 19.2455 24.6142 20.4678 24.7008H20.5021H20.5057C20.6507 24.7109 20.8065 24.7168 20.9725 24.7162C21.1385 24.7157 21.2949 24.7109 21.4393 24.7008H21.4435H21.4778C22.7001 24.6142 23.1212 24.2549 23.1212 24.2549L24.2269 19.2274L24.0248 19.2034Z" fill="url(#paint3_linear_21_83529)"/>
<path style="mix-blend-mode:overlay" opacity="0.37" d="M22.0029 24.6323C22.8186 24.4999 23.1164 24.2479 23.1164 24.2479L24.222 19.2204L24.0199 19.1947C23.5778 19.1306 23.1319 19.0891 22.6845 19.0703L22.2123 19.3208L22.0029 24.6323Z" fill="url(#paint4_linear_21_83529)"/>
<path style="mix-blend-mode:overlay" opacity="0.27" d="M20.7728 19.0273H20.7217H20.5514H20.4786C19.2106 19.0476 18.221 19.1395 17.9209 19.1956C17.8527 19.2037 17.7853 19.2123 17.7188 19.2212L18.8244 24.2471C18.8244 24.2471 19.2455 24.6064 20.4678 24.6929H20.5021H20.5057C20.6182 24.701 20.7385 24.7052 20.863 24.7068L20.7728 19.0273Z" fill="url(#paint5_linear_21_83529)"/>
<path d="M26.8551 18.8047L20.9756 19.0279L15.0967 18.8047L15.3632 19.862C15.3632 19.862 17.7922 20.514 20.975 20.514C24.1578 20.514 26.5868 19.862 26.5868 19.862L26.8551 18.8047Z" fill="url(#paint6_linear_21_83529)"/>
<path style="mix-blend-mode:overlay" opacity="0.18" d="M19.0891 18.9563L15.0967 18.8047L15.3632 19.862C15.3632 19.862 16.9837 20.2966 19.3117 20.4558L19.0891 18.9563Z" fill="url(#paint7_linear_21_83529)"/>
<path d="M8.28175 8.41016L0.40332 9.8108V10.552L4.00175 16.224L6.28642 17.1286L10.4557 16.4002L10.0064 14.999L6.7857 15.4075L5.262 14.8554L2.99296 11.3909L3.86401 10.3533L8.88991 10.9284L8.28175 8.41016Z" fill="url(#paint8_linear_21_83529)"/>
<path d="M8.03993 7.64471L2.78063 7.06641L0.40332 9.80843L3.89108 15.5381L6.10596 16.4518L10.1477 15.7159L9.71163 14.3003L6.5902 14.7131L5.11341 14.1556L2.91357 10.6553L3.75814 9.60765L8.63005 10.1886L8.03993 7.64471Z" fill="url(#paint9_linear_21_83529)"/>
<path d="M5.11488 14.1565L2.91504 10.6562V11.0023L5.11488 14.502L6.59167 15.0595L9.81536 14.6334L9.7131 14.3012L6.59167 14.714L5.11488 14.1565Z" fill="#FFFF6C"/>
<path d="M2.78063 7.41189L8.12234 7.99928L8.03993 7.64471L2.78063 7.06641L0.40332 9.80843L0.527227 10.0113L2.78063 7.41189Z" fill="#FFFF6C"/>
<path d="M6.40241 10.6452L7.85032 10.8108L7.26141 8.26473L7.19945 8.27648L7.102 7.83808L7.03523 7.53744L5.80566 7.40234L6.40241 10.6452Z" fill="black"/>
<path d="M9.9187 16.4498L9.59747 15.1538L9.21911 14.8073L9.46154 14.332L7.14258 14.6385L7.55944 16.9026L8.79984 16.6858L9.9187 16.4498Z" fill="black"/>
<path d="M33.3103 8.41016L41.1882 9.8108V10.552L37.5903 16.224L35.3051 17.1286L31.1357 16.4002L31.5857 14.999L34.8058 15.4075L36.3295 14.8554L38.5985 11.3909L37.7275 10.3533L32.7016 10.9284L33.3103 8.41016Z" fill="url(#paint10_linear_21_83529)"/>
<path d="M33.5516 7.64471L38.8115 7.06641L41.1882 9.80843L37.7004 15.5381L35.4855 16.4518L31.4443 15.7159L31.8799 14.3003L35.0019 14.7131L36.4787 14.1556L38.6779 10.6553L37.834 9.60765L32.962 10.1886L33.5516 7.64471Z" fill="url(#paint11_linear_21_83529)"/>
<path d="M36.4794 14.1565L38.6786 10.6562V11.0023L36.4794 14.502L35.0026 15.0595L31.7783 14.6334L31.8806 14.3012L35.0026 14.714L36.4794 14.1565Z" fill="#FFCE6C"/>
<path d="M38.814 7.41189L33.4717 7.99928L33.5541 7.64471L38.814 7.06641L41.1907 9.80843L41.0674 10.0113L38.814 7.41189Z" fill="#FFCE6C"/>
<path d="M33.8664 16.8827L34.335 14.6324L32.7698 14.4258L32.6814 14.7131L32.5412 15.1691L32.4468 15.1573L31.998 16.5559L33.8664 16.8827Z" fill="black"/>
<path d="M35.0957 10.6543L35.773 7.40234L34.5356 7.53851L34.4785 7.78414L34.3642 8.27808L34.2914 8.26526L33.6748 10.8167L35.0957 10.6543Z" fill="black"/>
<path d="M35.5923 5.27769C35.5923 4.12535 29.0463 3.19141 20.9711 3.19141C12.896 3.19141 6.35059 4.12535 6.35059 5.27769C6.35125 5.32448 6.36207 5.37071 6.38247 5.41386C6.64655 6.54324 8.50893 14.4382 9.30958 16.0685C10.1517 17.7735 14.7566 19.2724 20.7143 19.3525V19.3568C20.8009 19.3568 20.8857 19.3568 20.9711 19.3568C21.0566 19.3568 21.142 19.3568 21.228 19.3568V19.3525C27.1863 19.2708 31.7941 17.7735 32.6333 16.0685C33.434 14.4409 35.2963 6.54324 35.5604 5.41386C35.5808 5.37071 35.5916 5.32448 35.5923 5.27769Z" fill="url(#paint12_radial_21_83529)"/>
<path style="mix-blend-mode:overlay" d="M26.1248 4.36328C26.1248 4.36328 25.2026 12.7116 24.6318 14.6954C24.0609 16.6792 19.9187 19.3945 15.0967 18.8071C16.7395 19.1275 18.6458 19.3267 20.7181 19.355V19.3592C20.8047 19.3592 20.8896 19.3592 20.9756 19.3592C21.0616 19.3592 21.1458 19.3592 21.2318 19.3592V19.355C23.2344 19.3277 25.0817 19.1414 26.6885 18.8381C26.8196 18.7996 30.0493 17.8133 30.8668 14.5859C31.7011 11.2918 33.0323 5.39388 33.0323 5.39388L26.1248 4.36328Z" fill="url(#paint13_linear_21_83529)"/>
<path opacity="0.37" d="M13.8699 15.4226C13.3526 14.1944 12.0899 6.18996 11.7043 3.67969C8.43735 4.06202 6.35059 4.64086 6.35059 5.29286C6.35118 5.33965 6.36201 5.3859 6.38247 5.42903C6.64655 6.55841 8.50893 14.4534 9.30958 16.0837C10.1175 17.7246 14.4155 19.1723 20.0478 19.3522C15.5644 18.6772 14.4847 16.882 13.8699 15.4226Z" fill="url(#paint14_linear_21_83529)"/>
<path opacity="0.35" d="M6.35059 5.27876C6.35125 5.32555 6.36207 5.37178 6.38247 5.41493C6.46669 5.7759 6.71512 6.82946 7.03935 8.1484C14.8745 4.45482 33.0261 5.3925 33.0261 5.3925L34.163 4.37792C31.808 3.67573 26.7857 3.19141 20.9693 3.19141C12.8966 3.19247 6.35059 4.12642 6.35059 5.27876Z" fill="url(#paint15_linear_21_83529)"/>
<path style="mix-blend-mode:overlay" opacity="0.2" d="M21.4729 15.9674C21.1721 14.6442 20.2355 4.36705 20.2355 4.36705L20.1278 3.19922C16.1751 3.23446 12.6488 3.49398 10.165 3.88966V3.95267H10.1717C10.4002 3.91707 10.6375 3.88255 10.8833 3.84908L10.9489 3.84L11.2358 3.80262L11.3362 3.7898C11.4493 3.77557 11.5636 3.76169 11.6791 3.74816L11.699 3.74549C12.087 6.25523 13.3496 14.2602 13.8645 15.4884C13.9247 15.6246 13.9849 15.7629 14.0504 15.9033L14.06 15.9231C14.0787 15.9615 14.0979 16 14.1202 16.0389L14.1431 16.0833C14.1587 16.1142 14.1749 16.1447 14.1918 16.1756L14.2243 16.2344C14.2387 16.2605 14.2532 16.2878 14.2682 16.3129L14.3097 16.3828C14.3229 16.4053 14.3362 16.4277 14.35 16.4501L14.3993 16.5281L14.4372 16.5873L14.4974 16.6722L14.5335 16.7256C14.5551 16.7566 14.5768 16.7871 14.5996 16.8175L14.6327 16.8618C14.6574 16.8944 14.6826 16.9264 14.7091 16.959L14.7392 16.9964C14.7675 17.0306 14.7957 17.0653 14.8258 17.0994L14.8523 17.1293C14.8842 17.1656 14.9166 17.202 14.9503 17.2361C14.9576 17.2431 14.9648 17.2506 14.9714 17.258C15.0081 17.2965 15.0454 17.3349 15.0839 17.3728L15.0965 17.3857C15.8135 18.0878 16.9078 18.7292 18.6901 19.1563H18.695C18.8048 19.1823 18.9177 19.208 19.0336 19.2332H19.0402C19.1557 19.2578 19.274 19.2817 19.3952 19.3048C19.8541 19.3288 20.3227 19.3454 20.801 19.3518V19.3561C20.887 19.3561 20.9724 19.3561 21.0578 19.3561C21.1432 19.3561 21.2287 19.3561 21.3147 19.3561V19.3518C21.8673 19.3443 22.4087 19.3249 22.9389 19.2936C22.4787 18.4451 21.684 16.8906 21.4729 15.9674Z" fill="url(#paint16_linear_21_83529)"/>
<path d="M20.9767 0.0351562C11.9535 0.0351562 4.63574 1.35571 4.63574 2.98437C4.63628 3.0497 4.64824 3.11455 4.67122 3.17661C4.74882 3.59685 4.95035 4.67978 5.22104 6.0895C7.12433 4.84157 13.4568 3.92472 20.9767 3.92472C28.4966 3.92472 34.8285 4.84157 36.7324 6.0895C37.0031 4.67978 37.2046 3.59685 37.2822 3.17661C37.3052 3.11455 37.3171 3.0497 37.3177 2.98437C37.3177 1.35571 30.0017 0.0351562 20.9767 0.0351562Z" fill="url(#paint17_radial_21_83529)"/>
<path style="mix-blend-mode:overlay" d="M27.6424 0.289062L27.1455 4.08037L28.336 4.24057C29.8436 4.37071 31.3424 4.57213 32.8259 4.84397L33.8173 4.97747L34.7039 1.38534C32.9949 0.906353 30.5424 0.523483 27.6424 0.289062Z" fill="url(#paint18_linear_21_83529)"/>
<path opacity="0.14" d="M15.1195 0.226562C8.98791 0.653752 4.63574 1.72173 4.63574 2.98034C4.63628 3.04566 4.64824 3.11051 4.67122 3.17257C4.74882 3.59282 4.95035 4.67574 5.22104 6.08547C6.64129 5.15419 10.5267 4.40768 15.5309 4.08889L15.1195 0.226562Z" fill="black"/>
<path style="mix-blend-mode:overlay" opacity="0.64" d="M20.9767 0.0351562C11.9535 0.0351562 4.63574 1.35571 4.63574 2.98437C4.63628 3.0497 4.64824 3.11455 4.67122 3.17661C4.67483 3.1985 4.67964 3.2236 4.68446 3.24923C5.33292 1.7279 12.3794 0.529629 20.9767 0.529629C29.574 0.529629 36.6199 1.7279 37.269 3.24923C37.2738 3.2236 37.278 3.19583 37.2822 3.17661C37.3052 3.11455 37.3171 3.0497 37.3177 2.98437C37.3177 1.35571 30.0017 0.0351562 20.9767 0.0351562Z" fill="url(#paint19_linear_21_83529)"/>
<path opacity="0.35" d="M20.8553 3.40625C7.90102 3.40625 5.56943 5.18389 5.26084 5.83055C5.22198 5.90474 5.21409 5.98877 5.23858 6.06764C7.16833 4.82719 13.4797 3.91728 20.9708 3.91728C28.4618 3.91728 34.7702 4.82506 36.7018 6.06711C36.7257 5.98833 36.7176 5.90457 36.6789 5.83055C36.3703 5.18389 33.8126 3.40625 20.8553 3.40625Z" fill="url(#paint20_linear_21_83529)"/>
<path d="M36.6763 5.93092C36.3677 5.35635 33.8075 3.77734 20.8527 3.77734C7.8978 3.77734 5.56681 5.35635 5.25762 5.93092C4.94842 6.50549 6.68327 6.69665 6.68327 6.69665L6.50281 5.93092C10.8893 4.67178 18.3605 4.54896 20.9694 4.54629C23.5783 4.54362 31.0501 4.67178 35.4359 5.93092L35.2555 6.69665C35.2555 6.69665 36.9855 6.50549 36.6763 5.93092Z" fill="url(#paint21_linear_21_83529)"/>
<path opacity="0.14" d="M25.5478 11.9649C25.6168 9.26652 23.2085 7.02943 20.1688 6.9682C17.129 6.90696 14.6089 9.04477 14.5399 11.7431C14.471 14.4415 16.8792 16.6785 19.919 16.7398C22.9587 16.801 25.4788 14.6632 25.5478 11.9649Z" fill="black"/>
<path d="M20.7563 16.2897C23.7968 16.2897 26.2616 14.1017 26.2616 11.4027C26.2616 8.70363 23.7968 6.51562 20.7563 6.51562C17.7158 6.51562 15.251 8.70363 15.251 11.4027C15.251 14.1017 17.7158 16.2897 20.7563 16.2897Z" fill="url(#paint22_linear_21_83529)"/>
<path d="M20.7493 15.5838C23.5702 15.5838 25.857 13.5538 25.857 11.0497C25.857 8.5456 23.5702 6.51562 20.7493 6.51562C17.9284 6.51562 15.6416 8.5456 15.6416 11.0497C15.6416 13.5538 17.9284 15.5838 20.7493 15.5838Z" fill="url(#paint23_linear_21_83529)"/>
<path style="mix-blend-mode:overlay" d="M20.7493 6.51562C19.3947 6.51577 18.0956 6.99351 17.1378 7.84378C16.1799 8.69406 15.6418 9.84724 15.6416 11.0497C15.6421 11.3379 15.6731 11.6254 15.7342 11.9084C15.5994 11.0775 15.7393 10.2297 16.137 9.4681C16.5346 8.70648 17.1729 8.06379 17.9743 7.61813C18.7757 7.17248 19.7057 6.94304 20.6512 6.95772C21.5967 6.97239 22.5171 7.23054 23.3004 7.70079C24.0838 8.17104 24.6964 8.83314 25.0639 9.60664C25.4313 10.3801 25.5377 11.2317 25.3702 12.0579C25.2027 12.8841 24.7685 13.6493 24.1203 14.2605C23.4721 14.8718 22.6379 15.3027 21.719 15.501C22.9658 15.2866 24.078 14.6675 24.8384 13.7646C25.5989 12.8616 25.9531 11.7396 25.832 10.6173C25.7108 9.49509 25.1231 8.45314 24.1834 7.69478C23.2436 6.93641 22.0193 6.51602 20.7493 6.51562Z" fill="url(#paint24_linear_21_83529)"/>
<path d="M20.7539 6.51563V12.0472L25.7762 11.8721C25.9127 11.218 25.8854 10.5452 25.696 9.90161C25.5067 9.25799 25.16 8.65927 24.6806 8.14799C24.2012 7.63671 23.6009 7.2254 22.9222 6.94328C22.2436 6.66116 21.5033 6.51515 20.7539 6.51563Z" fill="url(#paint25_linear_21_83529)"/>
<path d="M18.6113 9.53429L18.9891 8.375H22.4829L23.1127 10.2472L22.3572 11.2249L23.1127 12.2587L22.6718 14.4523H18.7846L18.6113 13.3069H21.3183L21.5547 12.4685L21.2238 11.9233H19.6346V10.8057H21.1926L21.5384 10.0234L21.1492 9.51186L18.6113 9.53429Z" fill="url(#paint26_linear_21_83529)"/>
<path d="M22.8158 14.6074H18.6273L18.4071 13.1496H21.1784L21.3649 12.4885L21.1165 12.0784H19.4562V10.6489H21.0702L21.3384 10.0418L21.0539 9.66798L18.374 9.69202L18.8553 8.21875H22.6125L23.3037 10.2735L22.5668 11.2272L23.2965 12.2252L22.8158 14.6074ZM18.9347 14.2955H22.5217L22.9241 12.2909L22.1421 11.223L22.9163 10.2201L22.3484 8.53113H19.1169L18.842 9.37643L21.238 9.35507L21.7319 10.0044L21.3108 10.9618H19.8069V11.7676H21.3258L21.7379 12.4479L21.4521 13.4625H18.809L18.9347 14.2955Z" fill="url(#paint27_linear_21_83529)"/>
<path d="M18.6113 9.37803L18.9891 8.21875H22.4829L23.1127 10.0909L22.3572 11.0686L23.1127 12.1024L22.6718 14.2961H18.7846L18.6113 13.1507H21.3183L21.5547 12.3123L21.2238 11.7671H19.6346V10.6495H21.1926L21.5384 9.86717L21.1492 9.3556L18.6113 9.37803Z" fill="url(#paint28_linear_21_83529)"/>
<path d="M18.9891 8.56958H22.4829L23.0303 10.1972L23.1127 10.0909L22.4829 8.21875H18.9891L18.6113 9.37803L18.7262 9.37696L18.9891 8.56958Z" fill="url(#paint29_linear_21_83529)"/>
<path d="M19.6318 10.6456V10.9964H21.1898L21.5357 10.2141V9.86328L21.1898 10.6456H19.6318Z" fill="url(#paint30_linear_21_83529)"/>
<path d="M21.3183 13.5002L21.5547 12.6619L21.4867 12.5508L21.3183 13.1494H18.6113L18.6643 13.5002H21.3183Z" fill="url(#paint31_linear_21_83529)"/>
<path d="M22.3555 11.4172L23.0549 12.3757L23.1102 12.1002L22.3555 11.0664V11.4172Z" fill="url(#paint32_linear_21_83529)"/>
<defs>
<linearGradient id="paint0_linear_21_83529" x1="28.183" y1="25.3821" x2="16.3097" y2="25.3821" gradientUnits="userSpaceOnUse">
<stop stop-color="#FEBE4A"/>
<stop offset="0.71" stop-color="#A66622"/>
<stop offset="1" stop-color="#6C3C00"/>
</linearGradient>
<radialGradient id="paint1_radial_21_83529" cx="0" cy="0" r="1" gradientUnits="userSpaceOnUse" gradientTransform="translate(24.735 26.3175) scale(11.4498 10.1639)">
<stop stop-color="#FAE060"/>
<stop offset="0.29" stop-color="#CE823A"/>
<stop offset="0.71" stop-color="#A66622"/>
<stop offset="1" stop-color="#6C3C00"/>
</radialGradient>
<linearGradient id="paint2_linear_21_83529" x1="19.0064" y1="24.5811" x2="12.5957" y2="26.8029" gradientUnits="userSpaceOnUse">
<stop/>
<stop offset="1"/>
</linearGradient>
<linearGradient id="paint3_linear_21_83529" x1="24.8074" y1="21.868" x2="17.3127" y2="21.8863" gradientUnits="userSpaceOnUse">
<stop stop-color="#CE823A"/>
<stop offset="0.59" stop-color="#A66622"/>
<stop offset="1" stop-color="#6C3C00"/>
</linearGradient>
<linearGradient id="paint4_linear_21_83529" x1="23.1122" y1="18.0637" x2="23.1122" y2="23.5136" gradientUnits="userSpaceOnUse">
<stop stop-color="#FEFEBE"/>
<stop offset="1" stop-color="white"/>
</linearGradient>
<linearGradient id="paint5_linear_21_83529" x1="19.2912" y1="21.3881" x2="19.2912" y2="26.1475" gradientUnits="userSpaceOnUse">
<stop/>
<stop offset="1"/>
</linearGradient>
<linearGradient id="paint6_linear_21_83529" x1="27.5336" y1="19.6591" x2="17.3657" y2="19.6591" gradientUnits="userSpaceOnUse">
<stop stop-color="#CE823A"/>
<stop offset="0.38" stop-color="#A66622"/>
<stop offset="1" stop-color="#6C3C00"/>
</linearGradient>
<linearGradient id="paint7_linear_21_83529" x1="17.2039" y1="18.4902" x2="17.2039" y2="23.6132" gradientUnits="userSpaceOnUse">
<stop/>
<stop offset="1"/>
</linearGradient>
<linearGradient id="paint8_linear_21_83529" x1="5.42983" y1="19.2234" x2="5.42983" y2="4.78171" gradientUnits="userSpaceOnUse">
<stop stop-color="#A46A2C"/>
<stop offset="0.41" stop-color="#82511B"/>
<stop offset="1" stop-color="#4A2A00"/>
</linearGradient>
<linearGradient id="paint9_linear_21_83529" x1="6.71593" y1="17.7985" x2="3.22156" y2="1.66835" gradientUnits="userSpaceOnUse">
<stop stop-color="#FAE28C"/>
<stop offset="0.35" stop-color="#CE823A"/>
<stop offset="0.71" stop-color="#A66622"/>
<stop offset="1" stop-color="#6C3C00"/>
</linearGradient>
<linearGradient id="paint10_linear_21_83529" x1="36.1623" y1="0.230008" x2="36.1623" y2="28.2547" gradientUnits="userSpaceOnUse">
<stop stop-color="#A46A2C"/>
<stop offset="0.41" stop-color="#82511B"/>
<stop offset="1" stop-color="#4A2A00"/>
</linearGradient>
<linearGradient id="paint11_linear_21_83529" x1="30.5468" y1="12.5024" x2="48.8827" y2="9.84209" gradientUnits="userSpaceOnUse">
<stop stop-color="#FAE266"/>
<stop offset="0.5" stop-color="#CE823A"/>
<stop offset="1" stop-color="#A66622"/>
</linearGradient>
<radialGradient id="paint12_radial_21_83529" cx="0" cy="0" r="1" gradientUnits="userSpaceOnUse" gradientTransform="translate(25.3354 6.78514) scale(19.5165 17.3247)">
<stop stop-color="#FACC70"/>
<stop offset="0.29" stop-color="#CE9458"/>
<stop offset="0.71" stop-color="#A66622"/>
<stop offset="1" stop-color="#6C3C00"/>
</radialGradient>
<linearGradient id="paint13_linear_21_83529" x1="24.0645" y1="4.39479" x2="24.0645" y2="14.8198" gradientUnits="userSpaceOnUse">
<stop stop-color="#F2ECFF"/>
<stop offset="1" stop-color="white"/>
</linearGradient>
<linearGradient id="paint14_linear_21_83529" x1="10.9963" y1="8.11231" x2="13.7311" y2="17.1881" gradientUnits="userSpaceOnUse">
<stop stop-color="#3A1800"/>
<stop offset="1"/>
</linearGradient>
<linearGradient id="paint15_linear_21_83529" x1="6.35059" y1="5.67017" x2="34.1654" y2="5.67017" gradientUnits="userSpaceOnUse">
<stop stop-color="#482C12"/>
<stop offset="0.34" stop-color="#44270F"/>
<stop offset="0.77" stop-color="#381706"/>
<stop offset="1" stop-color="#300C00"/>
</linearGradient>
<linearGradient id="paint16_linear_21_83529" x1="15.4556" y1="5.11516" x2="17.1537" y2="15.8542" gradientUnits="userSpaceOnUse">
<stop/>
<stop offset="1"/>
</linearGradient>
<radialGradient id="paint17_radial_21_83529" cx="0" cy="0" r="1" gradientUnits="userSpaceOnUse" gradientTransform="translate(29.1782 2.45358) scale(29.4504 26.1429)">
<stop stop-color="#FAE28C"/>
<stop offset="0.35" stop-color="#CE823A"/>
<stop offset="0.71" stop-color="#A66622"/>
<stop offset="1" stop-color="#6C3C00"/>
</radialGradient>
<linearGradient id="paint18_linear_21_83529" x1="30.9244" y1="0.132604" x2="30.9244" y2="4.37727" gradientUnits="userSpaceOnUse">
<stop stop-color="#FEFEBE"/>
<stop offset="1" stop-color="white"/>
</linearGradient>
<linearGradient id="paint19_linear_21_83529" x1="4.63574" y1="1.64246" x2="37.3177" y2="1.64246" gradientUnits="userSpaceOnUse">
<stop stop-color="#FEFEFF"/>
<stop offset="0.12" stop-color="#FEFEFF"/>
<stop offset="0.54" stop-color="#FEFEFF"/>
<stop offset="1" stop-color="#FEFEFF"/>
</linearGradient>
<linearGradient id="paint20_linear_21_83529" x1="30.4259" y1="4.73694" x2="15.7951" y2="4.73694" gradientUnits="userSpaceOnUse">
<stop stop-color="#6A2C12"/>
<stop offset="0.24" stop-color="#652910"/>
<stop offset="0.54" stop-color="#55200B"/>
<stop offset="0.88" stop-color="#3B1204"/>
<stop offset="1" stop-color="#300C00"/>
</linearGradient>
<linearGradient id="paint21_linear_21_83529" x1="30.4238" y1="5.23673" x2="15.7925" y2="5.23673" gradientUnits="userSpaceOnUse">
<stop stop-color="#A46A2C"/>
<stop offset="0.41" stop-color="#82511B"/>
<stop offset="1" stop-color="#4A2A00"/>
</linearGradient>
<linearGradient id="paint22_linear_21_83529" x1="23.4332" y1="8.34346" x2="19.2691" y2="14.3835" gradientUnits="userSpaceOnUse">
<stop stop-color="#C4903C"/>
<stop offset="0.31" stop-color="#A1732B"/>
<stop offset="1" stop-color="#4A2A00"/>
</linearGradient>
<linearGradient id="paint23_linear_21_83529" x1="22.0763" y1="6.73776" x2="19.3629" y2="17.9277" gradientUnits="userSpaceOnUse">
<stop stop-color="#FAE28C"/>
<stop offset="0.57" stop-color="#CE823A"/>
<stop offset="1" stop-color="#A66622"/>
</linearGradient>
<linearGradient id="paint24_linear_21_83529" x1="23.3095" y1="7.14626" x2="18.5778" y2="16.2974" gradientUnits="userSpaceOnUse">
<stop stop-color="#FEFEFF"/>
<stop offset="0.12" stop-color="#FEFEFF"/>
<stop offset="0.54" stop-color="#FEFEFF"/>
<stop offset="1" stop-color="#FEFEFF"/>
</linearGradient>
<linearGradient id="paint25_linear_21_83529" x1="24.7422" y1="7.44103" x2="22.0618" y2="11.4743" gradientUnits="userSpaceOnUse">
<stop stop-color="#F2ECFF"/>
<stop offset="0.48" stop-color="#FAF8FF"/>
<stop offset="1" stop-color="white"/>
</linearGradient>
<linearGradient id="paint26_linear_21_83529" x1="18.6113" y1="11.4134" x2="23.1127" y2="11.4134" gradientUnits="userSpaceOnUse">
<stop stop-color="#FEFEFF"/>
<stop offset="0.12" stop-color="#FEFEFF"/>
<stop offset="0.54" stop-color="#FEFEFF"/>
<stop offset="1" stop-color="#FEFEFF"/>
</linearGradient>
<linearGradient id="paint27_linear_21_83529" x1="18.3734" y1="11.4125" x2="23.3019" y2="11.4125" gradientUnits="userSpaceOnUse">
<stop stop-color="#FEFEFF"/>
<stop offset="0.12" stop-color="#FEFEFF"/>
<stop offset="0.54" stop-color="#FEFEFF"/>
<stop offset="1" stop-color="#FEFEFF"/>
</linearGradient>
<linearGradient id="paint28_linear_21_83529" x1="20.8617" y1="17.3793" x2="20.8617" y2="8.23691" gradientUnits="userSpaceOnUse">
<stop stop-color="#A46A2C"/>
<stop offset="0.41" stop-color="#82511B"/>
<stop offset="1" stop-color="#4A2A00"/>
</linearGradient>
<linearGradient id="paint29_linear_21_83529" x1="20.8617" y1="11.2011" x2="20.8617" y2="8.22462" gradientUnits="userSpaceOnUse">
<stop stop-color="#482C12"/>
<stop offset="0.34" stop-color="#44270F"/>
<stop offset="0.77" stop-color="#381706"/>
<stop offset="1" stop-color="#300C00"/>
</linearGradient>
<linearGradient id="paint30_linear_21_83529" x1="20.5841" y1="11.5715" x2="20.5841" y2="9.86649" gradientUnits="userSpaceOnUse">
<stop stop-color="#482C12"/>
<stop offset="0.34" stop-color="#44270F"/>
<stop offset="0.77" stop-color="#381706"/>
<stop offset="1" stop-color="#300C00"/>
</linearGradient>
<linearGradient id="paint31_linear_21_83529" x1="20.0827" y1="13.9819" x2="20.0827" y2="12.5535" gradientUnits="userSpaceOnUse">
<stop stop-color="#482C12"/>
<stop offset="0.34" stop-color="#44270F"/>
<stop offset="0.77" stop-color="#381706"/>
<stop offset="1" stop-color="#300C00"/>
</linearGradient>
<linearGradient id="paint32_linear_21_83529" x1="22.7328" y1="13.0395" x2="22.7328" y2="11.0701" gradientUnits="userSpaceOnUse">
<stop stop-color="#482C12"/>
<stop offset="0.34" stop-color="#44270F"/>
<stop offset="0.77" stop-color="#381706"/>
<stop offset="1" stop-color="#300C00"/>
</linearGradient>
</defs>
</svg>
